nColumns=28
nRows=87
DataType=double
version=3
OpenSimVersion=4.1
endheader
time	ground_force_1_vx	ground_force_1_vy	ground_force_1_vz	ground_force_1_px	ground_force_1_py	ground_force_1_pz	ground_force_1_mx	ground_force_1_my	ground_force_1_mz	ground_force_2_vx	ground_force_2_vy	ground_force_2_vz	ground_force_2_px	ground_force_2_py	ground_force_2_pz	ground_force_2_mx	ground_force_2_my	ground_force_2_mz	ground_force_3_vx	ground_force_3_vy	ground_force_3_vz	ground_force_3_px	ground_force_3_py	ground_force_3_pz	ground_force_3_mx	ground_force_3_my	ground_force_3_mz
1.59	-271.29	371.209	-63.5473	-0.102173	0.006	-0.377353	0	0.38734	0	-199.402	256.218	28.7769	-0.084815	0.006	-0.828111	0	-0.052254	0	0	0	0	0	0	0	0	0	0
1.6	-421.531	696.24	-113.591	-0.112513	0.006	-0.376507	0	0.562347	0	-465.523	728.172	60.5613	-0.096801	0.006	-0.830763	0	0.684014	0	0	0	0	0	0	0	0	0	0
1.61	-141.684	759.266	-109.778	-0.154041	0.006	-0.382013	0	2.72377	0	-190.365	622.304	96.1812	-0.111042	0.006	-0.837292	0	-2.06978	0	0	0	0	0	0	0	0	0	0
1.62	1.73306	1103.37	-108.057	-0.200598	0.006	-0.397904	0	0.332203	0	-53.9895	664.963	143.696	-0.151047	0.006	-0.83737	0	-3.67087	0	0	0	0	0	0	0	0	0	0
1.63	-16.4503	1100.08	-64.4194	-0.208148	0.006	-0.405228	0	-2.68179	0	-1.781	961.402	150.131	-0.193091	0.006	-0.826361	0	0.138729	0	0	0	0	0	0	0	0	0	0
1.64	-212.432	785.463	-78.2191	-0.181653	0.006	-0.402929	0	-4.09268	0	-43.4086	965.243	115.274	-0.19816	0.006	-0.820677	0	3.99754	0	0	0	0	0	0	0	0	0	0
1.65	-302.582	596.855	-76.6318	-0.15086	0.006	-0.400228	0	-3.98659	0	-212.804	746.293	91.606	-0.168868	0.006	-0.819558	0	5.43708	0	0	0	0	0	0	0	0	0	0
1.66	-245.378	540.466	-58.2531	-0.142449	0.006	-0.400598	0	-4.41701	0	-248.937	597.463	73.4491	-0.13839	0.006	-0.819505	0	5.53526	0	0	0	0	0	0	0	0	0	0
1.67	-180.613	568.548	-70.1796	-0.145052	0.006	-0.399773	0	-4.02007	0	-190.881	556.465	71.5796	-0.126973	0.006	-0.819547	0	5.69385	0	0	0	0	0	0	0	0	0	0
1.68	-165.479	623.407	-87.223	-0.146513	0.006	-0.39956	0	-3.83651	0	-166.608	590.321	85.1999	-0.125459	0.006	-0.819947	0	5.58103	0	0	0	0	0	0	0	0	0	0
1.69	-149.761	694.649	-90.6664	-0.151563	0.006	-0.401511	0	-4.65984	0	-173.622	630.832	96.8476	-0.123579	0.006	-0.8202	0	5.71189	0	0	0	0	0	0	0	0	0	0
1.7	-103.466	774.069	-87.9302	-0.160347	0.006	-0.404065	0	-5.59249	0	-170.217	651.87	106.344	-0.121735	0.006	-0.82069	0	5.80345	0	0	0	0	0	0	0	0	0	0
1.71	-71.0798	807.33	-93.8943	-0.163766	0.006	-0.404513	0	-5.69222	0	-151.741	674.144	114.37	-0.122354	0.006	-0.821016	0	5.8177	0	0	0	0	0	0	0	0	0	0
1.72	-76.0318	789.661	-103.97	-0.159987	0.006	-0.403339	0	-5.38651	0	-128.205	714.152	123.24	-0.125708	0.006	-0.820971	0	5.75631	0	0	0	0	0	0	0	0	0	0
1.73	-92.2795	760.261	-106.738	-0.153199	0.006	-0.401902	0	-5.26105	0	-102.231	756.486	134.168	-0.129265	0.006	-0.820837	0	5.45001	0	0	0	0	0	0	0	0	0	0
1.74	-99.6876	732.906	-107.983	-0.146247	0.006	-0.400355	0	-4.90447	0	-79.7334	779.139	139.984	-0.130642	0.006	-0.820493	0	5.24853	0	0	0	0	0	0	0	0	0	0
1.75	-98.0924	710.591	-110.204	-0.140348	0.006	-0.399085	0	-4.22726	0	-72.7761	777.176	137.086	-0.128749	0.006	-0.82002	0	5.41203	0	0	0	0	0	0	0	0	0	0
1.76	-91.7032	701.071	-110.812	-0.136651	0.006	-0.398667	0	-3.72412	0	-80.2895	758.291	131.571	-0.124226	0.006	-0.81968	0	5.54512	0	0	0	0	0	0	0	0	0	0
1.77	-82.5793	710.295	-110.304	-0.135857	0.006	-0.399211	0	-3.72802	0	-88.8906	733.599	128.238	-0.118964	0.006	-0.819678	0	5.21912	0	0	0	0	0	0	0	0	0	0
1.78	-70.0866	728.697	-110.889	-0.137066	0.006	-0.400244	0	-3.98541	0	-91.8586	709.67	126.63	-0.114407	0.006	-0.819782	0	4.63819	0	0	0	0	0	0	0	0	0	0
1.79	-57.4404	739.528	-113.322	-0.138472	0.006	-0.401207	0	-4.23634	0	-89.5661	692.204	124.838	-0.111304	0.006	-0.819807	0	4.30381	0	0	0	0	0	0	0	0	0	0
1.8	-48.6678	737.147	-115.892	-0.139059	0.006	-0.402001	0	-4.54745	0	-81.6865	683.453	123.478	-0.109985	0.006	-0.819696	0	4.21409	0	0	0	0	0	0	0	0	0	0
1.81	-45.6995	725.37	-117.433	-0.138921	0.006	-0.40265	0	-5.03131	0	-70.1429	680.501	124.424	-0.109958	0.006	-0.819715	0	4.05231	0	0	0	0	0	0	0	0	0	0
1.82	-46.7914	711.398	-117.688	-0.13887	0.006	-0.403512	0	-5.65135	0	-59.2899	677.464	127.589	-0.110231	0.006	-0.819914	0	3.69373	0	0	0	0	0	0	0	0	0	0
1.83	-46.4548	698.859	-117.234	-0.139576	0.006	-0.404537	0	-6.2249	0	-51.287	669.728	130.867	-0.110359	0.006	-0.820086	0	3.29013	0	0	0	0	0	0	0	0	0	0
1.84	-43.112	687.629	-118.05	-0.14095	0.006	-0.405513	0	-6.49293	0	-44.9552	656.818	132.796	-0.110237	0.006	-0.820051	0	2.98817	0	0	0	0	0	0	0	0	0	0
1.85	-36.8396	679.017	-120.166	-0.142891	0.006	-0.406481	0	-6.50407	0	-39.9219	641.565	133.614	-0.110139	0.006	-0.819851	0	2.85325	0	0	0	0	0	0	0	0	0	0
1.86	-25.9066	674.136	-122.241	-0.145209	0.006	-0.407224	0	-6.41067	0	-35.7923	624.413	134.966	-0.110107	0.006	-0.819604	0	2.65278	0	0	0	0	0	0	0	0	0	0
1.87	-15.4758	672.994	-126.072	-0.145975	0.006	-0.407029	0	-6.06729	0	-32.631	606.083	137.514	-0.109922	0.006	-0.819302	0	2.25401	0	0	0	0	0	0	0	0	0	0
1.88	-14.6701	671.299	-132.763	-0.143769	0.006	-0.405791	0	-5.41415	0	-31.4592	590.026	140.071	-0.109728	0.006	-0.819017	0	1.94467	0	0	0	0	0	0	0	0	0	0
1.89	-18.1416	668.055	-136.91	-0.140363	0.006	-0.404572	0	-5.0175	0	-31.0684	578.584	141.701	-0.109537	0.006	-0.818647	0	1.9059	0	0	0	0	0	0	0	0	0	0
1.9	-20.7007	666.007	-137.829	-0.13692	0.006	-0.403635	0	-4.89745	0	-30.4772	574.773	142.632	-0.1094	0.006	-0.818229	0	2.1245	0	0	0	0	0	0	0	0	0	0
1.91	-23.3674	665.322	-139.332	-0.133067	0.006	-0.402413	0	-4.5246	0	-29.8038	578.199	143.881	-0.109612	0.006	-0.817827	0	2.40596	0	0	0	0	0	0	0	0	0	0
1.92	-27.1349	665.719	-142.273	-0.129057	0.006	-0.400835	0	-3.92256	0	-29.4664	583.363	145.704	-0.109689	0.006	-0.817573	0	2.60787	0	0	0	0	0	0	0	0	0	0
1.93	-30.3571	666.45	-144.628	-0.125309	0.006	-0.399433	0	-3.41747	0	-30.5579	586.677	147.197	-0.109324	0.006	-0.817275	0	2.70607	0	0	0	0	0	0	0	0	0	0
1.94	-32.3935	667.015	-146.163	-0.122189	0.006	-0.398223	0	-3.11322	0	-33.0752	586.383	148.088	-0.108744	0.006	-0.816913	0	2.70927	0	0	0	0	0	0	0	0	0	0
1.95	-34.6576	664.942	-147.805	-0.119946	0.006	-0.397316	0	-2.96226	0	-35.7857	582.466	148.7	-0.108203	0.006	-0.816671	0	2.58493	0	0	0	0	0	0	0	0	0	0
1.96	-35.511	661.049	-148.835	-0.118741	0.006	-0.396753	0	-2.96493	0	-37.9809	578.83	148.876	-0.107956	0.006	-0.816375	0	2.49558	0	0	0	0	0	0	0	0	0	0
1.97	-34.4149	661.099	-149.511	-0.118337	0.006	-0.396375	0	-3.08642	0	-39.0503	578.887	148.64	-0.108005	0.006	-0.816022	0	2.55911	0	0	0	0	0	0	0	0	0	0
1.98	-34.0444	666.852	-150.934	-0.118209	0.006	-0.395906	0	-3.15381	0	-38.7899	584.095	148.763	-0.108245	0.006	-0.81581	0	2.7829	0	0	0	0	0	0	0	0	0	0
1.99	-34.7141	675.72	-153.272	-0.117844	0.006	-0.395125	0	-3.11088	0	-39.1576	594.284	149.11	-0.108287	0.006	-0.815871	0	3.09832	0	0	0	0	0	0	0	0	0	0
2	-38.6472	686.69	-155.543	-0.116792	0.006	-0.39405	0	-3.071	0	-42.1856	607.321	148.876	-0.108098	0.006	-0.816183	0	3.40594	0	0	0	0	0	0	0	0	0	0
2.01	-46.0471	697.27	-156.403	-0.115029	0.006	-0.392874	0	-3.15204	0	-46.7511	622.054	147.179	-0.107665	0.006	-0.816748	0	3.71916	0	0	0	0	0	0	0	0	0	0
2.02	-55.6406	705.215	-155.323	-0.112794	0.006	-0.391687	0	-3.3264	0	-53.0432	637.501	144.506	-0.106831	0.006	-0.817681	0	3.8665	0	0	0	0	0	0	0	0	0	0
2.03	-66.7077	709.763	-151.704	-0.11039	0.006	-0.390612	0	-3.50965	0	-61.6315	651.09	139.988	-0.105682	0.006	-0.818803	0	3.85132	0	0	0	0	0	0	0	0	0	0
2.04	-78.6292	709.393	-144.589	-0.107887	0.006	-0.389703	0	-3.72076	0	-71.7904	658.756	131.882	-0.104214	0.006	-0.819751	0	3.89204	0	0	0	0	0	0	0	0	0	0
2.05	-91.0308	702.388	-134.038	-0.105492	0.006	-0.388908	0	-3.87149	0	-82.4109	657.58	119.279	-0.10235	0.006	-0.820449	0	3.94968	0	0	0	0	0	0	0	0	0	0
2.06	-101.621	683.226	-120.188	-0.103181	0.006	-0.388177	0	-3.74029	0	-91.7603	644.022	102.161	-0.100106	0.006	-0.821139	0	4.06575	0	0	0	0	0	0	0	0	0	0
2.07	-106.842	642.992	-102.75	-0.100752	0.006	-0.387374	0	-3.31259	0	-96.1081	609.657	80.9898	-0.097503	0.006	-0.82172	0	4.21727	0	0	0	0	0	0	0	0	0	0
2.08	-101.681	573.341	-80.3737	-0.097973	0.006	-0.386258	0	-2.74658	0	-89.7342	541.253	55.2783	-0.094395	0.006	-0.822357	0	4.35007	0	0	0	0	0	0	0	0	0	0
2.09	-80.254	465.323	-50.551	-0.094248	0.006	-0.384713	0	-2.31271	0	-67.0798	424.788	27.2795	-0.089872	0.006	-0.823417	0	4.12636	0	0	0	0	0	0	0	0	0	0
2.1	-44.2809	317.876	-16.1217	-0.088558	0.006	-0.38232	0	-1.93958	0	-30.5293	264.507	4.1342	-0.082124	0.006	-0.825054	0	3.11864	0	0	0	0	0	0	0	0	0	0
2.11	-9.11362	159.031	10.7777	-0.079542	0.006	-0.379961	0	-1.38864	0	1.55063	107.992	-8.34424	-0.066667	0.006	-0.825146	0	1.80627	0	0	0	0	0	0	0	0	0	0
2.12	8.53009	39.6289	15.3616	-0.058388	0.006	-0.386426	0	-0.903415	0	0	0	0	0	0	0	0	0	0	0	0	0	0	0	0	0	0	0
2.13	0	0	0	0	0	0	0	0	0	0	0	0	0	0	0	0	0	0	0	0	0	0	0	0	0	0	0
2.14	0	0	0	0	0	0	0	0	0	0	0	0	0	0	0	0	0	0	0	0	0	0	0	0	0	0	0
2.15	0	0	0	0	0	0	0	0	0	0	0	0	0	0	0	0	0	0	0	0	0	0	0	0	0	0	0
2.16	0	0	0	0	0	0	0	0	0	0	0	0	0	0	0	0	0	0	0	0	0	0	0	0	0	0	0
2.17	0	0	0	0	0	0	0	0	0	0	0	0	0	0	0	0	0	0	0	0	0	0	0	0	0	0	0
2.18	0	0	0	0	0	0	0	0	0	0	0	0	0	0	0	0	0	0	0	0	0	0	0	0	0	0	0
2.19	0	0	0	0	0	0	0	0	0	0	0	0	0	0	0	0	0	0	0	0	0	0	0	0	0	0	0
2.2	0	0	0	0	0	0	0	0	0	0	0	0	0	0	0	0	0	0	0	0	0	0	0	0	0	0	0
2.21	0	0	0	0	0	0	0	0	0	0	0	0	0	0	0	0	0	0	0	0	0	0	0	0	0	0	0
2.22	0	0	0	0	0	0	0	0	0	0	0	0	0	0	0	0	0	0	0	0	0	0	0	0	0	0	0
2.23	0	0	0	0	0	0	0	0	0	0	0	0	0	0	0	0	0	0	0	0	0	0	0	0	0	0	0
2.24	0	0	0	0	0	0	0	0	0	0	0	0	0	0	0	0	0	0	0	0	0	0	0	0	0	0	0
2.25	0	0	0	0	0	0	0	0	0	0	0	0	0	0	0	0	0	0	0	0	0	0	0	0	0	0	0
2.26	0	0	0	0	0	0	0	0	0	0	0	0	0	0	0	0	0	0	0	0	0	0	0	0	0	0	0
2.27	0	0	0	0	0	0	0	0	0	0	0	0	0	0	0	0	0	0	0	0	0	0	0	0	0	0	0
2.28	0	0	0	0	0	0	0	0	0	0	0	0	0	0	0	0	0	0	0	0	0	0	0	0	0	0	0
2.29	0	0	0	0	0	0	0	0	0	0	0	0	0	0	0	0	0	0	0	0	0	0	0	0	0	0	0
2.3	0	0	0	0	0	0	0	0	0	0	0	0	0	0	0	0	0	0	0	0	0	0	0	0	0	0	0
2.31	0	0	0	0	0	0	0	0	0	0	0	0	0	0	0	0	0	0	0	0	0	0	0	0	0	0	0
2.32	0	0	0	0	0	0	0	0	0	0	0	0	0	0	0	0	0	0	0	0	0	0	0	0	0	0	0
2.33	0	0	0	0	0	0	0	0	0	0	0	0	0	0	0	0	0	0	0	0	0	0	0	0	0	0	0
2.34	0	0	0	0	0	0	0	0	0	0	0	0	0	0	0	0	0	0	0	0	0	0	0	0	0	0	0
2.35	0	0	0	0	0	0	0	0	0	0	0	0	0	0	0	0	0	0	0	0	0	0	0	0	0	0	0
2.36	0	0	0	0	0	0	0	0	0	0	0	0	0	0	0	0	0	0	0	0	0	0	0	0	0	0	0
2.37	0	0	0	0	0	0	0	0	0	0	0	0	0	0	0	0	0	0	0	0	0	0	0	0	0	0	0
2.38	0	0	0	0	0	0	0	0	0	0	0	0	0	0	0	0	0	0	0	0	0	0	0	0	0	0	0
2.39	0	0	0	0	0	0	0	0	0	0	0	0	0	0	0	0	0	0	0	0	0	0	0	0	0	0	0
2.4	0	0	0	0	0	0	0	0	0	0	0	0	0	0	0	0	0	0	0	0	0	0	0	0	0	0	0
2.41	0	0	0	0	0	0	0	0	0	0	0	0	0	0	0	0	0	0	0	0	0	0	0	0	0	0	0
2.42	0	0	0	0	0	0	0	0	0	0	0	0	0	0	0	0	0	0	0	0	0	0	0	0	0	0	0
2.43	0	0	0	0	0	0	0	0	0	0	0	0	0	0	0	0	0	0	0	0	0	0	0	0	0	0	0
2.44	0	0	0	0	0	0	0	0	0	0	0	0	0	0	0	0	0	0	0	0	0	0	0	0	0	0	0
2.45	0	0	0	0	0	0	0	0	0	0	0	0	0	0	0	0	0	0	0	0	0	0	0	0	0	0	0
